<mxfile host="app.diagrams.net" modified="2024-06-12T14:27:42.222Z" agent="Mozilla/5.0 (Windows NT 10.0; Win64; x64) AppleWebKit/537.36 (KHTML, like Gecko) Chrome/125.0.0.0 Safari/537.36" etag="7bEynZUjmtVFynqS_hzk" version="24.5.3" type="github">
  <diagram name="PÃ¡gina-1" id="QnRCAdSknI_kv5f7DbrM">
    <mxGraphModel dx="1615" dy="857" grid="1" gridSize="10" guides="1" tooltips="1" connect="1" arrows="1" fold="1" page="1" pageScale="1" pageWidth="827" pageHeight="1169" math="0" shadow="0">
      <root>
        <mxCell id="0" />
        <mxCell id="1" parent="0" />
        <mxCell id="UzVZKdw17sYIRjSBGPYJ-1" value="inicio" style="strokeWidth=2;html=1;shape=mxgraph.flowchart.start_1;whiteSpace=wrap;" vertex="1" parent="1">
          <mxGeometry x="350" y="30" width="100" height="60" as="geometry" />
        </mxCell>
        <mxCell id="UzVZKdw17sYIRjSBGPYJ-3" value="nome&lt;div&gt;nota1&lt;/div&gt;&lt;div&gt;nota2&lt;/div&gt;&lt;div&gt;media&lt;/div&gt;" style="shape=parallelogram;html=1;strokeWidth=2;perimeter=parallelogramPerimeter;whiteSpace=wrap;rounded=1;arcSize=12;size=0.23;" vertex="1" parent="1">
          <mxGeometry x="330" y="130" width="120" height="70" as="geometry" />
        </mxCell>
        <mxCell id="UzVZKdw17sYIRjSBGPYJ-4" style="edgeStyle=orthogonalEdgeStyle;rounded=0;orthogonalLoop=1;jettySize=auto;html=1;entryX=0.589;entryY=0.03;entryDx=0;entryDy=0;entryPerimeter=0;" edge="1" parent="1" source="UzVZKdw17sYIRjSBGPYJ-1" target="UzVZKdw17sYIRjSBGPYJ-3">
          <mxGeometry relative="1" as="geometry" />
        </mxCell>
        <mxCell id="UzVZKdw17sYIRjSBGPYJ-9" style="edgeStyle=orthogonalEdgeStyle;rounded=0;orthogonalLoop=1;jettySize=auto;html=1;" edge="1" parent="1" source="UzVZKdw17sYIRjSBGPYJ-5" target="UzVZKdw17sYIRjSBGPYJ-8">
          <mxGeometry relative="1" as="geometry" />
        </mxCell>
        <mxCell id="UzVZKdw17sYIRjSBGPYJ-5" value="nome&lt;div&gt;nota1&lt;/div&gt;&lt;div&gt;nota2&lt;/div&gt;" style="html=1;strokeWidth=2;shape=manualInput;whiteSpace=wrap;rounded=1;size=26;arcSize=11;" vertex="1" parent="1">
          <mxGeometry x="330" y="230" width="120" height="100" as="geometry" />
        </mxCell>
        <mxCell id="UzVZKdw17sYIRjSBGPYJ-6" style="edgeStyle=orthogonalEdgeStyle;rounded=0;orthogonalLoop=1;jettySize=auto;html=1;entryX=0.504;entryY=0.248;entryDx=0;entryDy=0;entryPerimeter=0;" edge="1" parent="1" source="UzVZKdw17sYIRjSBGPYJ-3" target="UzVZKdw17sYIRjSBGPYJ-5">
          <mxGeometry relative="1" as="geometry" />
        </mxCell>
        <mxCell id="UzVZKdw17sYIRjSBGPYJ-8" value="media = (nota1 + nota2) / 2" style="rounded=1;whiteSpace=wrap;html=1;absoluteArcSize=1;arcSize=14;strokeWidth=2;" vertex="1" parent="1">
          <mxGeometry x="340" y="370" width="100" height="100" as="geometry" />
        </mxCell>
        <mxCell id="UzVZKdw17sYIRjSBGPYJ-17" style="edgeStyle=orthogonalEdgeStyle;rounded=0;orthogonalLoop=1;jettySize=auto;html=1;exitX=1;exitY=0.5;exitDx=0;exitDy=0;exitPerimeter=0;" edge="1" parent="1" source="UzVZKdw17sYIRjSBGPYJ-10" target="UzVZKdw17sYIRjSBGPYJ-16">
          <mxGeometry relative="1" as="geometry" />
        </mxCell>
        <mxCell id="UzVZKdw17sYIRjSBGPYJ-10" value="media &amp;gt;= 7" style="strokeWidth=2;html=1;shape=mxgraph.flowchart.decision;whiteSpace=wrap;" vertex="1" parent="1">
          <mxGeometry x="340" y="520" width="100" height="100" as="geometry" />
        </mxCell>
        <mxCell id="UzVZKdw17sYIRjSBGPYJ-11" style="edgeStyle=orthogonalEdgeStyle;rounded=0;orthogonalLoop=1;jettySize=auto;html=1;entryX=0.5;entryY=0;entryDx=0;entryDy=0;entryPerimeter=0;" edge="1" parent="1" source="UzVZKdw17sYIRjSBGPYJ-8" target="UzVZKdw17sYIRjSBGPYJ-10">
          <mxGeometry relative="1" as="geometry" />
        </mxCell>
        <mxCell id="UzVZKdw17sYIRjSBGPYJ-12" value="aprovado" style="strokeWidth=2;html=1;shape=mxgraph.flowchart.display;whiteSpace=wrap;" vertex="1" parent="1">
          <mxGeometry x="180" y="540" width="100" height="60" as="geometry" />
        </mxCell>
        <mxCell id="UzVZKdw17sYIRjSBGPYJ-15" style="edgeStyle=orthogonalEdgeStyle;rounded=0;orthogonalLoop=1;jettySize=auto;html=1;entryX=1;entryY=0.5;entryDx=0;entryDy=0;entryPerimeter=0;" edge="1" parent="1" source="UzVZKdw17sYIRjSBGPYJ-10" target="UzVZKdw17sYIRjSBGPYJ-12">
          <mxGeometry relative="1" as="geometry" />
        </mxCell>
        <mxCell id="UzVZKdw17sYIRjSBGPYJ-16" value="reprovado" style="strokeWidth=2;html=1;shape=mxgraph.flowchart.display;whiteSpace=wrap;" vertex="1" parent="1">
          <mxGeometry x="500" y="540" width="100" height="60" as="geometry" />
        </mxCell>
        <mxCell id="UzVZKdw17sYIRjSBGPYJ-22" style="edgeStyle=orthogonalEdgeStyle;rounded=0;orthogonalLoop=1;jettySize=auto;html=1;exitX=0.5;exitY=1;exitDx=0;exitDy=0;exitPerimeter=0;" edge="1" parent="1" source="UzVZKdw17sYIRjSBGPYJ-18" target="UzVZKdw17sYIRjSBGPYJ-21">
          <mxGeometry relative="1" as="geometry" />
        </mxCell>
        <mxCell id="UzVZKdw17sYIRjSBGPYJ-18" value="" style="strokeWidth=2;html=1;shape=mxgraph.flowchart.start_2;whiteSpace=wrap;" vertex="1" parent="1">
          <mxGeometry x="374" y="640" width="40" height="45" as="geometry" />
        </mxCell>
        <mxCell id="UzVZKdw17sYIRjSBGPYJ-19" style="edgeStyle=orthogonalEdgeStyle;rounded=0;orthogonalLoop=1;jettySize=auto;html=1;exitX=0.5;exitY=1;exitDx=0;exitDy=0;exitPerimeter=0;entryX=0;entryY=0.5;entryDx=0;entryDy=0;entryPerimeter=0;" edge="1" parent="1" source="UzVZKdw17sYIRjSBGPYJ-12" target="UzVZKdw17sYIRjSBGPYJ-18">
          <mxGeometry relative="1" as="geometry" />
        </mxCell>
        <mxCell id="UzVZKdw17sYIRjSBGPYJ-20" style="edgeStyle=orthogonalEdgeStyle;rounded=0;orthogonalLoop=1;jettySize=auto;html=1;exitX=0.5;exitY=1;exitDx=0;exitDy=0;exitPerimeter=0;entryX=1;entryY=0.5;entryDx=0;entryDy=0;entryPerimeter=0;" edge="1" parent="1" source="UzVZKdw17sYIRjSBGPYJ-16" target="UzVZKdw17sYIRjSBGPYJ-18">
          <mxGeometry relative="1" as="geometry" />
        </mxCell>
        <mxCell id="UzVZKdw17sYIRjSBGPYJ-21" value="Fim" style="strokeWidth=2;html=1;shape=mxgraph.flowchart.start_1;whiteSpace=wrap;" vertex="1" parent="1">
          <mxGeometry x="344" y="730" width="100" height="60" as="geometry" />
        </mxCell>
      </root>
    </mxGraphModel>
  </diagram>
</mxfile>
